{"title":"Nude.Nuns.With.Big.Guns.2010.720p.BRRip.x264.Feel-Free","uid":6334617,"size":2237545705,"categoryP":"video","categoryS":"hd___movies","magnet":"?xt=urn:btih:3026e1fe72ccd04d3e6c8a17d11db02d64d174f7&amp;dn=Nude.Nuns.With.Big.Guns.2010.720p.BRRip.x264.Feel-Free&amp;tr=udp%3A%2F%2Ftracker.openbittorrent.com%3A80&amp;tr=udp%3A%2F%2Fopen.demonii.com%3A1337&amp;tr=udp%3A%2F%2Ftracker.coppersurfer.tk%3A6969&amp;tr=udp%3A%2F%2Fexodus.desync.com%3A6969","seeders":4,"leechers":0,"uploader":"SaM","files":8,"time":1303417059,"description":"extratorrent.com\n &lt;a href=&quot;\nhttp://extratorrent.com/torrent/2413891/&quot; rel=&quot;nofollow&quot; target=&quot;_NEW&quot;&gt;\nhttp://extratorrent.com/torrent/2413891/&lt;/a&gt;\n\n\nGenre:Thriller\nLanguage:English\nIMDb:http://www.imdb.com/title/tt1352388/\nSource:720p.BluRay.x264-7SinS\n\n\nFormat : MPEG-4\nFormat profile : Base Media\nCodec ID : isom\nFile size : 2.08 GiB\nDuration : 1h 31mn\nOverall bit rate : 3 246 Kbps\n\n\nVideo\nFormat profile : &lt;a class=&quot;__cf_email__&quot; href=&quot;/cdn-cgi/l/email-protection&quot; data-cfemail=&quot;bef6d7d9d6fef28a908f&quot;&gt;[email&amp;#160;protected]&lt;/a&gt;&lt;script cf-hash='f9e31' type=&quot;text/javascript&quot;&gt;\n/* &lt;![CDATA[ */!function(){try{var t=&quot;currentScript&quot;in document?document.currentScript:function(){for(var t=document.getElementsByTagName(&quot;script&quot;),e=t.length;e--;)if(t[e].getAttribute(&quot;cf-hash&quot;))return t[e]}();if(t&amp;&amp;t.previousSibling){var e,r,n,i,c=t.previousSibling,a=c.getAttribute(&quot;data-cfemail&quot;);if(a){for(e=&quot;&quot;,r=parseInt(a.substr(0,2),16),n=2;a.length-n;n+=2)i=parseInt(a.substr(n,2),16)^r,e+=String.fromCharCode(i);e=document.createTextNode(e),c.parentNode.replaceChild(e,c)}}}catch(u){}}();/* ]]&gt; */&lt;/script&gt;\nFormat settings, CABAC : Yes\nFormat settings, ReFrames : 3 frames\nCodec ID : avc1\nCodec ID/Info : Advanced Video Coding\nDuration : 1h 31mn\nBit rate mode : Variable\nBit rate : 3 000 Kbps\nMaximum bit rate : 21.1 Mbps\nWidth : 1 280 pixels\nHeight : 720 pixels\nDisplay aspect ratio : 16:9\nFrame rate mode : Constant\nFrame rate : 23.976 fps\nColor space : YUV\nChroma subsampling : 4:2:0\nBit depth : 8 bits\nScan type : Progressive\nBits/(Pixel*Frame) : 0.136\nStream size : 1.87 GiB (90%)\nWriting library : x264\n\n\nAudio\nID : 2\nFormat : AAC\nFormat/Info : Advanced Audio Codec\nFormat version : Version 4\nFormat profile : LC\nFormat settings, SBR : No\nCodec ID : 40\nDuration : 1h 31mn\nBit rate mode : Variable\nBit rate : 318 Kbps\nMaximum bit rate : 417 Kbps\nChannel(s) : 2 channels\nChannel positions : Front: L R\nSampling rate : 48.0 KHz\nStream size : 209 MiB (10%)\n\n\nPlot:\nUpon taking her vows to become a nun, Sister Sarah is abused, brainwashed and drugged into submission by the corrupt clergy\n &lt;a href=&quot;\nhttp://leetleech.org/images/03704175904987866685.png&quot; rel=&quot;nofollow&quot; target=&quot;_NEW&quot;&gt;\nhttp://leetleech.org/images/03704175904987866685.png&lt;/a&gt;\n &lt;a href=&quot;\nhttp://leetleech.org/images/96105190606059193325.png&quot; rel=&quot;nofollow&quot; target=&quot;_NEW&quot;&gt;\nhttp://leetleech.org/images/96105190606059193325.png&lt;/a&gt;\n &lt;a href=&quot;\nhttp://leetleech.org/images/29158105147656958453.png&quot; rel=&quot;nofollow&quot; target=&quot;_NEW&quot;&gt;\nhttp://leetleech.org/images/29158105147656958453.png&lt;/a&gt;\n &lt;a href=&quot;\nhttp://leetleech.org/images/61041975164626499419.png&quot; rel=&quot;nofollow&quot; target=&quot;_NEW&quot;&gt;\nhttp://leetleech.org/images/61041975164626499419.png&lt;/a&gt;","torrent":{"xt":"urn:btih:3026e1fe72ccd04d3e6c8a17d11db02d64d174f7","amp;dn":"Nude.Nuns.With.Big.Guns.2010.720p.BRRip.x264.Feel-Free","amp;tr":["udp%3A%2F%2Ftracker.openbittorrent.com%3A80","udp%3A%2F%2Fopen.demonii.com%3A1337","udp%3A%2F%2Ftracker.coppersurfer.tk%3A6969","udp%3A%2F%2Fexodus.desync.com%3A6969"],"infoHash":"3026e1fe72ccd04d3e6c8a17d11db02d64d174f7","infoHashBuffer":{"type":"Buffer","data":[48,38,225,254,114,204,208,77,62,108,138,23,209,29,176,45,100,209,116,247]},"announce":[],"urlList":[]}}